<svg width="32" height="32" viewBox="0 0 32 32" fill="none" xmlns="http://www.w3.org/2000/svg">
<path d="M15.6641 8.30957C15.5597 8.21627 15.4372 8.13994 15.301 8.08481C15.1603 8.02968 15.015 8 14.8561 8H11.5608C9.20496 8 7.1896 8.78452 5.51466 10.3493C4.67493 11.1338 4.04399 11.9947 3.6264 12.9234C3.2088 13.8521 3 14.8783 3 15.9979C3 18.203 3.83973 20.0901 5.51466 21.6592C7.18506 23.2197 9.20042 24 11.5608 24H14.8561C15.015 24 15.1603 23.9703 15.301 23.9152C15.4417 23.8601 15.5597 23.7837 15.6641 23.6904C15.7685 23.5971 15.8502 23.4869 15.9092 23.3554C15.9682 23.224 16 23.0883 16 22.9398V9.06016C16 8.91174 15.9682 8.77604 15.9092 8.64458C15.8502 8.51312 15.7685 8.40286 15.6641 8.30957ZM13.7214 21.8797H11.5608C9.82682 21.8797 8.34707 21.3072 7.11697 20.158C6.49511 19.577 6.03212 18.9451 5.72346 18.2624C5.4148 17.5796 5.26501 16.8248 5.26501 15.9979C5.26501 14.3864 5.88233 12.9997 7.11697 11.8463C8.35161 10.6928 9.83136 10.1161 11.5608 10.1161H13.7214V21.8754V21.8797Z" fill="url(#paint0_linear_303_4317)"/>
<path d="M30 15.9979C30 14.8783 29.8073 13.8521 29.4218 12.9234C29.0363 11.9947 28.4539 11.1338 27.6788 10.3493C26.1327 8.78452 24.2682 8 22.0978 8H19.0559C18.9092 8 18.7751 8.02968 18.6453 8.08481C18.5154 8.13994 18.4064 8.21627 18.3101 8.30957C18.2137 8.40286 18.1383 8.51312 18.0838 8.64458C18.0293 8.77604 18 8.91174 18 9.06016V22.9398C18 23.0883 18.0293 23.224 18.0838 23.3554C18.1383 23.4869 18.2137 23.5971 18.3101 23.6904C18.4064 23.7837 18.5196 23.8601 18.6453 23.9152C18.7751 23.9703 18.9092 24 19.0559 24H22.0978C24.2765 24 26.1369 23.2197 27.6788 21.6592C29.2249 20.0944 30 18.2073 30 15.9979ZM26.1955 20.158C25.0642 21.3029 23.6941 21.8797 22.0936 21.8797H20.0992V10.1203H22.0936C23.6858 10.1203 25.0559 10.6971 26.1955 11.8505C27.3352 13.004 27.905 14.3864 27.905 16.0021C27.905 16.829 27.7626 17.5839 27.4818 18.2666C27.1969 18.9494 26.7696 19.5812 26.1955 20.1622V20.158Z" fill="url(#paint1_linear_303_4317)"/>
<defs>
<linearGradient id="paint0_linear_303_4317" x1="9.49546" y1="8" x2="9.49546" y2="24" gradientUnits="userSpaceOnUse">
<stop stop-color="#F48632"/>
<stop offset="1" stop-color="#ED384C"/>
</linearGradient>
<linearGradient id="paint1_linear_303_4317" x1="24" y1="8" x2="24" y2="24" gradientUnits="userSpaceOnUse">
<stop stop-color="#F48632"/>
<stop offset="1" stop-color="#ED384C"/>
</linearGradient>
</defs>
</svg>
